# xmcd
#
# Track frame offsets:
#	150
#	15533
#	42799
#	61347
#	77075
#	94222
#	111792
#	129935
#	147175
#	164883
#	180437
#	199138
#	214503
#	231443
#	251347
#
# Disc length: 3531 seconds
#
# Revision: 2
# Processed by: cddbd v1.5.2PL0 Copyright (c) Steve Scherf et al.
# Submitted via: audiograbber 1.83.01
#
DISCID=c90dc90f
DTITLE=Chartbuster Karaoke - CB 60416
DYEAR=2009
DGENRE=Country
TTITLE0=Tim McGraw - Its A Business Doing Pleasure With You
TTITLE1=Brad Paisley - Welcome To The Future
TTITLE2=Gary Allan - Today
TTITLE3=Sara Evans - Feels Just Like A Love Song
TTITLE4=Jimmy Wayne - ILL Be That
TTITLE5=Eli Young Band - Radio Waves
TTITLE6=Shea Fisher  - Dont Chase Me
TTITLE7=John Rich - The Good Lord And The Man
TTITLE8=Jason Jones - Unlikely Angel
TTITLE9=Krista Marie - Jeep Jeep
TTITLE10=Jason Michael Carroll - Hurry Home
TTITLE11=Steve Holy - Baby Dont Go
TTITLE12=Megan Mullins - Long Past Gone
TTITLE13=Lost Trailers - All This Love
TTITLE14=Toby Keith - American Ride
EXTD=
EXTT0=
EXTT1=
EXTT2=
EXTT3=
EXTT4=
EXTT5=
EXTT6=
EXTT7=
EXTT8=
EXTT9=
EXTT10=
EXTT11=
EXTT12=
EXTT13=
EXTT14=
PLAYORDER=
